<svg width="265" height="200" viewBox="0 0 265 200" fill="none" xmlns="http://www.w3.org/2000/svg">
<path d="M231.876 100C231.876 101.658 231.003 103.247 229.45 104.419C227.897 105.592 225.791 106.25 223.594 106.25H61.3958L121.797 151.828C122.567 152.409 123.177 153.098 123.593 153.857C124.01 154.616 124.224 155.429 124.224 156.25C124.224 157.071 124.01 157.884 123.593 158.643C123.177 159.402 122.567 160.091 121.797 160.672C121.028 161.253 120.114 161.713 119.109 162.027C118.104 162.342 117.026 162.503 115.938 162.503C114.85 162.503 113.773 162.342 112.767 162.027C111.762 161.713 110.849 161.253 110.079 160.672L35.5479 104.422C34.778 103.841 34.1671 103.152 33.7504 102.393C33.3336 101.635 33.1191 100.821 33.1191 100C33.1191 99.1786 33.3336 98.3654 33.7504 97.6066C34.1671 96.8479 34.778 96.1586 35.5479 95.5781L110.079 39.3281C111.633 38.1554 113.741 37.4965 115.938 37.4965C118.136 37.4965 120.243 38.1554 121.797 39.3281C123.351 40.5009 124.224 42.0915 124.224 43.75C124.224 45.4085 123.351 46.9991 121.797 48.1719L61.3958 93.75H223.594C225.791 93.75 227.897 94.4085 229.45 95.5806C231.003 96.7527 231.876 98.3424 231.876 100Z" fill="black"/>
</svg>
