<svg width="149" height="165" viewBox="0 0 149 165" fill="none" xmlns="http://www.w3.org/2000/svg">
<rect x="44" y="159" width="60" height="6" fill="#003E62"/>
<rect x="54" y="150" width="40" height="6" fill="#003E62"/>
<rect x="71" y="25" width="7" height="125" fill="#003E62"/>
<path d="M2.74016 81.9265L23.8157 31.4847L44.9182 81.991C44.8687 82.0841 44.8126 82.1849 44.7492 82.2924C44.3267 83.0086 43.5784 84.0289 42.316 85.0752C39.8264 87.1388 35.094 89.5 26.3164 89.5H26.0746C21.5402 89.5 18.0284 89.5001 15.1929 89.3547C12.2986 89.2064 10.3042 88.9127 8.79547 88.4024C6.30564 87.5602 4.77553 86.0303 2.74016 81.9265Z" stroke="#003E62" stroke-width="5"/>
<path d="M104.057 81.9265L125.132 31.4847L146.235 81.991C146.185 82.0841 146.129 82.1849 146.066 82.2924C145.643 83.0086 144.895 84.0289 143.632 85.0752C141.143 87.1388 136.41 89.5 127.633 89.5H127.391C122.857 89.5 119.345 89.5001 116.509 89.3547C113.615 89.2064 111.621 88.9127 110.112 88.4024C107.622 87.5602 106.092 86.0303 104.057 81.9265Z" stroke="#003E62" stroke-width="5"/>
<path d="M3 20H36L73 15L109 20H145V26H112L73 20L36 26H3V20Z" fill="#003E62"/>
<circle cx="74" cy="8" r="7" stroke="#003E62" stroke-width="2"/>
</svg>
