<svg width="200" height="200" viewBox="0 0 200 200" fill="none" xmlns="http://www.w3.org/2000/svg">
<path d="M198.956 177.506C198.958 180.324 198.405 183.114 197.328 185.718C196.252 188.321 194.673 190.687 192.681 192.68C190.69 194.674 188.325 196.255 185.723 197.334C183.12 198.413 180.33 198.968 177.513 198.969H21.4375C18.6206 198.967 15.8317 198.411 13.2299 197.331C10.6281 196.252 8.26438 194.67 6.27372 192.677C4.28307 190.684 2.70445 188.319 1.628 185.716C0.551557 183.113 -0.00163836 180.323 3.64465e-06 177.506V21.45C-0.000825542 15.763 2.2571 10.3085 6.27723 6.28606C10.2974 2.26359 15.7505 0.00248587 21.4375 0H177.509C180.326 -1.19632e-07 183.115 0.554866 185.717 1.63291C188.319 2.71095 190.683 4.29104 192.675 6.28294C194.666 8.27484 196.245 10.6395 197.323 13.2419C198.4 15.8443 198.954 18.6334 198.953 21.45L198.956 177.506Z" fill="#FFC700"/>
<path d="M111.622 49.7344L169.209 99.2906L112.178 149.091C104.178 148.5 97.8969 143.175 97.8594 136.656L97.8031 125.591L45.85 125.872C41.6511 125.89 37.6164 124.242 34.6309 121.29C31.6455 118.337 29.9531 114.321 29.925 110.122L29.8281 89.5844C29.8074 85.3859 31.4549 81.351 34.4084 78.367C37.3619 75.383 41.3797 73.6942 45.5781 73.6719L97.5219 73.4031L97.4594 62.3406C97.4313 55.8187 103.628 50.4375 111.616 49.7469" fill="white"/>
</svg>
