<svg width="200" height="200" viewBox="0 0 200 200" fill="none" xmlns="http://www.w3.org/2000/svg">
<path d="M137.5 46.875H62.5C61.6712 46.875 60.8763 47.2042 60.2903 47.7903C59.7042 48.3763 59.375 49.1712 59.375 50V87.5C59.375 88.3288 59.7042 89.1237 60.2903 89.7097C60.8763 90.2958 61.6712 90.625 62.5 90.625H137.5C138.329 90.625 139.124 90.2958 139.71 89.7097C140.296 89.1237 140.625 88.3288 140.625 87.5V50C140.625 49.1712 140.296 48.3763 139.71 47.7903C139.124 47.2042 138.329 46.875 137.5 46.875ZM134.375 84.375H65.625V53.125H134.375V84.375ZM156.25 21.875H43.75C41.2636 21.875 38.879 22.8627 37.1209 24.6209C35.3627 26.379 34.375 28.7636 34.375 31.25V168.75C34.375 171.236 35.3627 173.621 37.1209 175.379C38.879 177.137 41.2636 178.125 43.75 178.125H156.25C158.736 178.125 161.121 177.137 162.879 175.379C164.637 173.621 165.625 171.236 165.625 168.75V31.25C165.625 28.7636 164.637 26.379 162.879 24.6209C161.121 22.8627 158.736 21.875 156.25 21.875ZM159.375 168.75C159.375 169.579 159.046 170.374 158.46 170.96C157.874 171.546 157.079 171.875 156.25 171.875H43.75C42.9212 171.875 42.1263 171.546 41.5403 170.96C40.9542 170.374 40.625 169.579 40.625 168.75V31.25C40.625 30.4212 40.9542 29.6263 41.5403 29.0403C42.1263 28.4542 42.9212 28.125 43.75 28.125H156.25C157.079 28.125 157.874 28.4542 158.46 29.0403C159.046 29.6263 159.375 30.4212 159.375 31.25V168.75ZM75 115.625C75 116.861 74.6334 118.07 73.9467 119.097C73.2599 120.125 72.2838 120.926 71.1418 121.399C69.9997 121.872 68.7431 121.996 67.5307 121.755C66.3183 121.514 65.2047 120.919 64.3306 120.044C63.4565 119.17 62.8612 118.057 62.6201 116.844C62.3789 115.632 62.5027 114.375 62.9758 113.233C63.4488 112.091 64.2499 111.115 65.2777 110.428C66.3055 109.742 67.5139 109.375 68.75 109.375C70.4076 109.375 71.9973 110.033 73.1694 111.206C74.3415 112.378 75 113.967 75 115.625ZM106.25 115.625C106.25 116.861 105.883 118.07 105.197 119.097C104.51 120.125 103.534 120.926 102.392 121.399C101.25 121.872 99.9931 121.996 98.7807 121.755C97.5683 121.514 96.4547 120.919 95.5806 120.044C94.7065 119.17 94.1112 118.057 93.8701 116.844C93.6289 115.632 93.7527 114.375 94.2258 113.233C94.6988 112.091 95.4999 111.115 96.5277 110.428C97.5555 109.742 98.7639 109.375 100 109.375C101.658 109.375 103.247 110.033 104.419 111.206C105.592 112.378 106.25 113.967 106.25 115.625ZM137.5 115.625C137.5 116.861 137.133 118.07 136.447 119.097C135.76 120.125 134.784 120.926 133.642 121.399C132.5 121.872 131.243 121.996 130.031 121.755C128.818 121.514 127.705 120.919 126.831 120.044C125.956 119.17 125.361 118.057 125.12 116.844C124.879 115.632 125.003 114.375 125.476 113.233C125.949 112.091 126.75 111.115 127.778 110.428C128.805 109.742 130.014 109.375 131.25 109.375C132.908 109.375 134.497 110.033 135.669 111.206C136.842 112.378 137.5 113.967 137.5 115.625ZM75 146.875C75 148.111 74.6334 149.32 73.9467 150.347C73.2599 151.375 72.2838 152.176 71.1418 152.649C69.9997 153.122 68.7431 153.246 67.5307 153.005C66.3183 152.764 65.2047 152.169 64.3306 151.294C63.4565 150.42 62.8612 149.307 62.6201 148.094C62.3789 146.882 62.5027 145.625 62.9758 144.483C63.4488 143.341 64.2499 142.365 65.2777 141.678C66.3055 140.992 67.5139 140.625 68.75 140.625C70.4076 140.625 71.9973 141.283 73.1694 142.456C74.3415 143.628 75 145.217 75 146.875ZM106.25 146.875C106.25 148.111 105.883 149.32 105.197 150.347C104.51 151.375 103.534 152.176 102.392 152.649C101.25 153.122 99.9931 153.246 98.7807 153.005C97.5683 152.764 96.4547 152.169 95.5806 151.294C94.7065 150.42 94.1112 149.307 93.8701 148.094C93.6289 146.882 93.7527 145.625 94.2258 144.483C94.6988 143.341 95.4999 142.365 96.5277 141.678C97.5555 140.992 98.7639 140.625 100 140.625C101.658 140.625 103.247 141.283 104.419 142.456C105.592 143.628 106.25 145.217 106.25 146.875ZM137.5 146.875C137.5 148.111 137.133 149.32 136.447 150.347C135.76 151.375 134.784 152.176 133.642 152.649C132.5 153.122 131.243 153.246 130.031 153.005C128.818 152.764 127.705 152.169 126.831 151.294C125.956 150.42 125.361 149.307 125.12 148.094C124.879 146.882 125.003 145.625 125.476 144.483C125.949 143.341 126.75 142.365 127.778 141.678C128.805 140.992 130.014 140.625 131.25 140.625C132.908 140.625 134.497 141.283 135.669 142.456C136.842 143.628 137.5 145.217 137.5 146.875Z" fill="#003E62"/>
</svg>
