<svg width="199" height="132" viewBox="0 0 199 132" fill="none" xmlns="http://www.w3.org/2000/svg">
<rect x="2.35375" y="35.1422" width="167" height="96" rx="10" transform="rotate(-11.3229 2.35375 35.1422)" stroke="#003E62" stroke-width="4"/>
<line x1="2.7645" y1="44.8517" x2="169.537" y2="11.885" stroke="#003E62" stroke-width="4"/>
<line x1="6.7645" y1="71.8517" x2="175.499" y2="38.4972" stroke="#003E62" stroke-width="4"/>
<rect x="29.1523" y="32.8138" width="167" height="96" rx="10" fill="#F5F5F5" stroke="#003E62" stroke-width="4"/>
<circle cx="152.652" cy="77.3138" r="11.5" stroke="#003E62" stroke-width="2"/>
<circle cx="164.652" cy="77.3138" r="11.5" stroke="#003E62" stroke-width="2"/>
<rect x="49.1523" y="67.8138" width="38" height="19" rx="6" stroke="#003E62" stroke-width="2"/>
<path d="M89.1523 76.8138C89.1523 81.8861 85.4741 85.8138 81.1523 85.8138C76.8306 85.8138 73.1523 81.8861 73.1523 76.8138C73.1523 71.7415 76.8306 67.8138 81.1523 67.8138C85.4741 67.8138 89.1523 71.7415 89.1523 76.8138Z" stroke="#003E62" stroke-width="2"/>
<path d="M64.1523 76.8138C64.1523 81.8861 60.4741 85.8138 56.1523 85.8138C51.8306 85.8138 48.1523 81.8861 48.1523 76.8138C48.1523 71.7415 51.8306 67.8138 56.1523 67.8138C60.4741 67.8138 64.1523 71.7415 64.1523 76.8138Z" stroke="#003E62" stroke-width="2"/>
<line x1="73.1523" y1="117.314" x2="176.152" y2="117.314" stroke="#003E62" stroke-width="3"/>
<line x1="52.1523" y1="108.814" x2="117.152" y2="108.814" stroke="#003E62" stroke-width="4"/>
<line x1="53.1523" y1="117.314" x2="68.1523" y2="117.314" stroke="#003E62" stroke-width="3"/>
</svg>
