<svg width="35" height="35" viewBox="0 0 35 35" fill="none" xmlns="http://www.w3.org/2000/svg">
<path d="M15.3125 22.6042H19.6875V18.9584H23.3334V14.5834H19.6875V10.9376H15.3125V14.5834H11.6667V18.9584H15.3125V22.6042ZM17.5 32.0834C14.1216 31.2327 11.3323 29.2941 9.13212 26.2676C6.93199 23.2411 5.8324 19.8811 5.83337 16.1876V7.29175L17.5 2.91675L29.1667 7.29175V16.1876C29.1667 19.882 28.0671 23.2425 25.868 26.269C23.6688 29.2956 20.8795 31.2337 17.5 32.0834ZM17.5 29.0209C20.0278 28.2188 22.1181 26.6147 23.7709 24.2084C25.4236 21.8022 26.25 19.1286 26.25 16.1876V9.29696L17.5 6.01571L8.75004 9.29696V16.1876C8.75004 19.1286 9.57643 21.8022 11.2292 24.2084C12.882 26.6147 14.9723 28.2188 17.5 29.0209Z" fill="black"/>
</svg>
