<svg width="200" height="200" viewBox="0 0 200 200" fill="none" xmlns="http://www.w3.org/2000/svg">
<mask id="mask0_5079_65" style="mask-type:luminance" maskUnits="userSpaceOnUse" x="0" y="0" width="200" height="200">
<path d="M0 0H200V200H0V0Z" fill="white"/>
</mask>
<g mask="url(#mask0_5079_65)">
<path fill-rule="evenodd" clip-rule="evenodd" d="M200 0H0V200H200V0ZM33.3333 29.1667V166.667H45.8333V104.167C45.8333 103.062 46.2723 102.002 47.0537 101.22C47.8351 100.439 48.8949 100 50 100H75C76.1051 100 77.1649 100.439 77.9463 101.22C78.7277 102.002 79.1667 103.062 79.1667 104.167V166.667H87.5V87.5C87.5 86.3949 87.939 85.3351 88.7204 84.5537C89.5018 83.7723 90.5616 83.3333 91.6667 83.3333H116.667C117.772 83.3333 118.832 83.7723 119.613 84.5537C120.394 85.3351 120.833 86.3949 120.833 87.5V166.667H129.167V54.1667C129.167 53.0616 129.606 52.0018 130.387 51.2204C131.168 50.439 132.228 50 133.333 50H158.333C159.438 50 160.498 50.439 161.28 51.2204C162.061 52.0018 162.5 53.0616 162.5 54.1667V166.667H170.833V175H29.1667C28.0616 175 27.0018 174.561 26.2204 173.78C25.439 172.998 25 171.938 25 170.833V29.1667H33.3333Z" fill="black"/>
</g>
</svg>
