<svg width="200" height="200" viewBox="0 0 200 200" fill="none" xmlns="http://www.w3.org/2000/svg">
<path fill-rule="evenodd" clip-rule="evenodd" d="M99.9999 22.9167C91.8499 22.9167 84.8915 28.125 82.3165 35.4167C81.7446 36.9536 80.5915 38.2041 79.106 38.8986C77.6204 39.5931 75.9214 39.6759 74.3754 39.1293C72.8293 38.5826 71.5601 37.4501 70.8413 35.9762C70.1226 34.5022 70.0119 32.8048 70.5332 31.25C72.6878 25.1555 76.6788 19.8789 81.9568 16.1467C87.2347 12.4146 93.5399 10.4106 100.004 10.4106C106.468 10.4106 112.773 12.4146 118.051 16.1467C123.329 19.8789 127.32 25.1555 129.475 31.25C129.748 32.0243 129.867 32.8448 129.823 33.6648C129.78 34.4848 129.575 35.2882 129.221 36.0292C128.867 36.7701 128.371 37.4341 127.76 37.9831C127.149 38.5322 126.437 38.9556 125.662 39.2292C124.888 39.5028 124.068 39.6212 123.248 39.5776C122.428 39.5341 121.624 39.3295 120.883 38.9755C120.142 38.6214 119.478 38.1249 118.929 37.5143C118.38 36.9037 117.957 36.1909 117.683 35.4167C116.389 31.7608 113.994 28.5958 110.827 26.3573C107.661 24.1187 103.878 22.9167 99.9999 22.9167Z" fill="black"/>
<path d="M116.666 104.167H83.3327C82.2276 104.167 81.1678 104.606 80.3864 105.387C79.605 106.168 79.166 107.228 79.166 108.333V126.35C79.1662 127.182 79.4155 127.995 79.8819 128.684C80.3483 129.373 81.0103 129.907 81.7827 130.217L87.616 132.55C95.5652 135.731 104.434 135.731 112.383 132.55L118.216 130.217C118.988 129.907 119.65 129.373 120.117 128.684C120.583 127.995 120.832 127.182 120.833 126.35V108.333C120.833 107.228 120.394 106.168 119.612 105.387C118.831 104.606 117.771 104.167 116.666 104.167Z" fill="black"/>
<path d="M66.7493 128.083L25.0493 115.567C25.2993 141.517 26.816 165.425 35.9827 173.567C46.966 183.333 64.6493 183.333 99.9993 183.333C135.358 183.333 153.033 183.333 164.016 173.567C173.183 165.425 174.699 141.517 174.949 115.567L133.241 128.075C132.927 131.095 131.794 133.973 129.964 136.396C128.134 138.819 125.677 140.696 122.858 141.825L117.024 144.158C106.095 148.531 93.9032 148.531 82.9743 144.158L77.141 141.825C74.3219 140.696 71.8646 138.819 70.0347 136.396C68.2047 133.973 67.0716 131.095 66.7577 128.075M63.4077 41.6667H136.591C157.008 41.6667 167.216 41.6667 174.108 47.275C175.441 48.3583 176.649 49.5667 177.724 50.8917C183.333 57.7833 183.333 67.9917 183.333 88.4083C183.333 93.5917 183.333 96.175 182.083 98.2C181.837 98.5949 181.558 98.9685 181.249 99.3167C179.666 101.1 177.191 101.842 172.233 103.333L133.333 115V108.333C133.333 103.913 131.577 99.6738 128.451 96.5482C125.326 93.4226 121.086 91.6667 116.666 91.6667H83.3327C78.9124 91.6667 74.6732 93.4226 71.5476 96.5482C68.422 99.6738 66.666 103.913 66.666 108.333V115L27.766 103.333C22.8077 101.842 20.3243 101.1 18.7493 99.3167C18.4409 98.9683 18.1622 98.5948 17.916 98.2C16.666 96.175 16.666 93.5917 16.666 88.4083C16.666 67.9917 16.666 57.7833 22.2743 50.8917C23.3577 49.5583 24.566 48.35 25.891 47.275C32.7827 41.6667 42.991 41.6667 63.4077 41.6667Z" fill="black"/>
</svg>
