<svg width="200" height="200" viewBox="0 0 200 200" fill="none" xmlns="http://www.w3.org/2000/svg">
<path d="M55 94.975C55 72.2583 55 60.9 62.025 53.8417C69.0583 46.7833 80.3667 46.7833 103 46.7833H127C149.625 46.7833 160.942 46.7833 167.967 53.8417C175 60.9 175 72.2583 175 94.975V135.142C175 157.858 175 169.217 167.967 176.275C160.942 183.333 149.625 183.333 127 183.333H103C80.3667 183.333 69.0583 183.333 62.025 176.275C55 169.217 55 157.858 55 135.142V94.975Z" fill="#00C638"/>
<path opacity="0.5" d="M34.7667 26.4333C25 36.1916 25 51.9083 25 83.3333V100C25 131.425 25 147.142 34.7667 156.9C39.9083 162.05 46.7083 164.483 56.6 165.633C55 158.633 55 149 55 135.133V94.975C55 72.2583 55 60.9 62.025 53.8416C69.0583 46.7833 80.3667 46.7833 103 46.7833H127C140.767 46.7833 150.333 46.7833 157.317 48.3666C156.167 38.425 153.733 31.6 148.567 26.4333C138.808 16.6666 123.092 16.6666 91.6667 16.6666C60.2417 16.6666 44.525 16.6666 34.7667 26.4333Z" fill="#121212"/>
</svg>
