<svg width="35" height="35" viewBox="0 0 35 35" fill="none" xmlns="http://www.w3.org/2000/svg">
<path d="M8.18858 29.1666C7.51775 29.1666 6.95775 28.942 6.50858 28.4928C6.05942 28.0437 5.83435 27.4832 5.83337 26.8114V8.18846C5.83337 7.51763 6.05844 6.95763 6.50858 6.50846C6.95872 6.05929 7.51872 5.83422 8.18858 5.83325H26.8115C27.4823 5.83325 28.0423 6.05832 28.4915 6.50846C28.9407 6.9586 29.1657 7.5186 29.1667 8.18846V26.8114C29.1667 27.4822 28.9421 28.0422 28.493 28.4914C28.0438 28.9405 27.4833 29.1656 26.8115 29.1666H8.18858ZM7.29171 13.122H27.7084V8.18846C27.7084 7.96485 27.615 7.75922 27.4284 7.57159C27.2417 7.38395 27.0361 7.29061 26.8115 7.29159H8.18858C7.96497 7.29159 7.75935 7.38492 7.57171 7.57159C7.38407 7.75825 7.29074 7.96388 7.29171 8.18846V13.122ZM7.29171 20.4195H27.7084V14.5803H7.29171V20.4195ZM8.18858 27.7083H26.8115C27.0351 27.7083 27.2407 27.6149 27.4284 27.4283C27.616 27.2416 27.7093 27.036 27.7084 26.8114V21.8778H7.29171V26.8114C7.29171 27.035 7.38504 27.2406 7.57171 27.4283C7.75837 27.6159 7.964 27.7092 8.18858 27.7083ZM9.87296 11.3808V9.02409H12.2296V11.3808H9.87296ZM9.87296 18.6783V16.3216H12.2296V18.6783H9.87296ZM9.87296 25.9758V23.6191H12.2296V25.9758H9.87296Z" fill="black"/>
</svg>
