<svg width="35" height="35" viewBox="0 0 35 35" fill="none" xmlns="http://www.w3.org/2000/svg">
<path d="M11.106 29.1667C10.4527 29.1667 9.89657 28.9372 9.43768 28.4783C8.97879 28.0195 8.74935 27.4638 8.74935 26.8115V8.75001H7.29102V7.29168H13.1243V6.16876H21.8743V7.29168H27.7077V8.75001H26.2493V26.8115C26.2493 27.4823 26.0248 28.0428 25.5756 28.4929C25.1264 28.9431 24.5655 29.1677 23.8927 29.1667H11.106ZM24.791 8.75001H10.2077V26.8115C10.2077 27.073 10.2918 27.2879 10.46 27.4561C10.6282 27.6242 10.8435 27.7083 11.106 27.7083H23.8941C24.1178 27.7083 24.3234 27.615 24.511 27.4283C24.6987 27.2417 24.792 27.0356 24.791 26.81V8.75001ZM14.3027 24.7917H15.761V11.6667H14.3027V24.7917ZM19.2377 24.7917H20.696V11.6667H19.2377V24.7917Z" fill="black"/>
</svg>
