<svg width="35" height="35" viewBox="0 0 35 35" fill="none" xmlns="http://www.w3.org/2000/svg">
<path d="M15.75 26.6875C15.75 26.1073 15.9805 25.5509 16.3907 25.1407C16.8009 24.7305 17.3573 24.5 17.9375 24.5C18.5177 24.5 19.0741 24.7305 19.4843 25.1407C19.8945 25.5509 20.125 26.1073 20.125 26.6875C20.125 27.2677 19.8945 27.8241 19.4843 28.2343C19.0741 28.6445 18.5177 28.875 17.9375 28.875C17.3573 28.875 16.8009 28.6445 16.3907 28.2343C15.9805 27.8241 15.75 27.2677 15.75 26.6875ZM15.75 17.9375C15.75 17.3573 15.9805 16.8009 16.3907 16.3907C16.8009 15.9805 17.3573 15.75 17.9375 15.75C18.5177 15.75 19.0741 15.9805 19.4843 16.3907C19.8945 16.8009 20.125 17.3573 20.125 17.9375C20.125 18.5177 19.8945 19.0741 19.4843 19.4843C19.0741 19.8945 18.5177 20.125 17.9375 20.125C17.3573 20.125 16.8009 19.8945 16.3907 19.4843C15.9805 19.0741 15.75 18.5177 15.75 17.9375ZM15.75 9.1875C15.75 8.60734 15.9805 8.05094 16.3907 7.6407C16.8009 7.23047 17.3573 7 17.9375 7C18.5177 7 19.0741 7.23047 19.4843 7.6407C19.8945 8.05094 20.125 8.60734 20.125 9.1875C20.125 9.76766 19.8945 10.3241 19.4843 10.7343C19.0741 11.1445 18.5177 11.375 17.9375 11.375C17.3573 11.375 16.8009 11.1445 16.3907 10.7343C15.9805 10.3241 15.75 9.76766 15.75 9.1875Z" fill="black"/>
</svg>
