<svg width="200" height="200" viewBox="0 0 200 200" fill="none" xmlns="http://www.w3.org/2000/svg">
<path fill-rule="evenodd" clip-rule="evenodd" d="M105.891 130.892C104.328 132.454 102.209 133.332 99.9993 133.332C97.7896 133.332 95.6703 132.454 94.1076 130.892L46.9659 83.75C46.17 82.9813 45.5352 82.0617 45.0984 81.045C44.6617 80.0283 44.4318 78.9348 44.4222 77.8283C44.4126 76.7218 44.6234 75.6245 45.0424 74.6004C45.4614 73.5762 46.0802 72.6458 46.8627 71.8634C47.6451 71.0809 48.5755 70.4622 49.5997 70.0431C50.6238 69.6241 51.7211 69.4133 52.8276 69.4229C53.9341 69.4325 55.0276 69.6624 56.0443 70.0991C57.061 70.5359 57.9806 71.1707 58.7493 71.9667L99.9993 113.217L141.249 71.9667C142.821 70.4487 144.926 69.6087 147.111 69.6277C149.296 69.6467 151.386 70.5231 152.931 72.0682C154.476 73.6132 155.353 75.7033 155.372 77.8883C155.391 80.0733 154.551 82.1783 153.033 83.75L105.891 130.892Z" fill="black"/>
</svg>
