<svg width="35" height="35" viewBox="0 0 35 35" fill="none" xmlns="http://www.w3.org/2000/svg">
<path d="M28.4375 17.5C28.4375 17.2099 28.5527 16.9317 28.7579 16.7266C28.963 16.5215 29.2412 16.4062 29.5312 16.4062C29.8213 16.4062 30.0995 16.5215 30.3046 16.7266C30.5098 16.9317 30.625 17.2099 30.625 17.5V29.5312C30.625 29.8213 30.5098 30.0995 30.3046 30.3046C30.0995 30.5098 29.8213 30.625 29.5312 30.625H5.46875C5.17867 30.625 4.90047 30.5098 4.69535 30.3046C4.49023 30.0995 4.375 29.8213 4.375 29.5312V5.46875C4.375 5.17867 4.49023 4.90047 4.69535 4.69535C4.90047 4.49023 5.17867 4.375 5.46875 4.375H17.5C17.7901 4.375 18.0683 4.49023 18.2734 4.69535C18.4785 4.90047 18.5938 5.17867 18.5938 5.46875C18.5938 5.75883 18.4785 6.03703 18.2734 6.24215C18.0683 6.44727 17.7901 6.5625 17.5 6.5625H6.5625V28.4375H28.4375V17.5Z" fill="black"/>
<path d="M16.062 18.9437L17.8667 18.6856L28.953 7.60156C29.0574 7.50067 29.1408 7.37998 29.1981 7.24653C29.2554 7.11309 29.2856 6.96957 29.2869 6.82434C29.2881 6.67912 29.2604 6.53509 29.2054 6.40067C29.1505 6.26626 29.0692 6.14414 28.9665 6.04144C28.8638 5.93875 28.7417 5.85753 28.6073 5.80254C28.4729 5.74754 28.3289 5.71987 28.1836 5.72113C28.0384 5.72239 27.8949 5.75256 27.7614 5.80989C27.628 5.86721 27.5073 5.95053 27.4064 6.055L16.318 17.1391L16.0599 18.9437H16.062ZM30.4995 4.50625C30.8045 4.81097 31.0463 5.17278 31.2114 5.57102C31.3764 5.96926 31.4613 6.39611 31.4613 6.82719C31.4613 7.25826 31.3764 7.68511 31.2114 8.08335C31.0463 8.48159 30.8045 8.8434 30.4995 9.14812L19.1574 20.4903C18.9901 20.6582 18.7729 20.7672 18.5383 20.8009L14.9289 21.3172C14.7607 21.3413 14.5892 21.326 14.4279 21.2723C14.2667 21.2186 14.1202 21.1281 14 21.0079C13.8799 20.8878 13.7894 20.7413 13.7357 20.58C13.682 20.4188 13.6666 20.2473 13.6908 20.0791L14.207 16.4697C14.2402 16.2354 14.3484 16.0182 14.5155 15.8506L25.8599 4.50844C26.4752 3.8933 27.3096 3.54773 28.1797 3.54773C29.0498 3.54773 29.8842 3.8933 30.4995 4.50844V4.50625Z" fill="black"/>
</svg>
