<svg width="200" height="200" viewBox="0 0 200 200" fill="none" xmlns="http://www.w3.org/2000/svg">
<path d="M137.308 25.0333C138.7 25.1583 139.308 26.8583 138.308 27.8499L68.9751 97.1833C68.1919 97.967 67.6311 98.9448 67.3501 100.017L59.0168 131.933C58.7417 132.988 58.7473 134.096 59.0329 135.148C59.3185 136.2 59.8743 137.159 60.6451 137.93C61.4159 138.701 62.3748 139.257 63.4267 139.542C64.4787 139.828 65.5871 139.833 66.6418 139.558L98.5501 131.225C99.6227 130.941 100.6 130.378 101.383 129.592L171.7 59.2749C171.92 59.0491 172.2 58.891 172.507 58.8194C172.814 58.7478 173.135 58.7656 173.433 58.8708C173.73 58.976 173.991 59.1642 174.184 59.413C174.378 59.6619 174.496 59.961 174.525 60.2749C177.451 88.1885 177.283 116.34 174.025 144.217C172.167 160.092 159.408 172.55 143.592 174.325C114.622 177.537 85.3864 177.537 56.4168 174.325C40.5918 172.55 27.8335 160.092 25.9751 144.217C22.5395 114.842 22.5395 85.1665 25.9751 55.7916C27.8335 39.9083 40.5918 27.4499 56.4168 25.6833C83.2878 22.7054 110.393 22.4876 137.308 25.0333Z" fill="black"/>
<path d="M148.525 35.3083C148.719 35.1143 148.949 34.9604 149.202 34.8554C149.455 34.7504 149.726 34.6963 150 34.6963C150.274 34.6963 150.546 34.7504 150.799 34.8554C151.052 34.9604 151.282 35.1143 151.475 35.3083L163.259 47.1C163.648 47.4905 163.866 48.0194 163.866 48.5708C163.866 49.1222 163.648 49.6512 163.259 50.0417L94.1502 119.167C93.8867 119.428 93.559 119.614 93.2002 119.708L77.2502 123.875C76.8986 123.967 76.5292 123.965 76.1785 123.87C75.8279 123.774 75.5082 123.589 75.2513 123.332C74.9944 123.075 74.8091 122.756 74.7139 122.405C74.6187 122.054 74.6169 121.685 74.7085 121.333L78.8752 105.383C78.968 105.024 79.1549 104.696 79.4169 104.433L148.525 35.3083Z" fill="black"/>
</svg>
