<svg width="35" height="35" viewBox="0 0 35 35" fill="none" xmlns="http://www.w3.org/2000/svg">
<path d="M5.83337 4.37508H14.5834V7.29175H5.83337V4.37508ZM1.45837 10.2084H8.75004V13.1251H1.45837V10.2084ZM4.37504 27.7084H11.6667V30.6251H4.37504V27.7084ZM32.3896 27.1397L29.0646 21.1459C28.662 20.4541 28.001 19.9505 27.2271 19.7459L23.3334 18.7688C23.275 18.0834 23.1 17.4272 22.7646 16.8292L28.5396 7.21883C29.4875 5.64383 28.9771 3.60216 27.4021 2.65425C26.7804 2.28695 26.0564 2.13105 25.3386 2.20993C24.6209 2.28881 23.948 2.59821 23.4209 3.09175L18.4188 7.773C17.8355 8.31258 17.5 9.0855 17.5 9.88758V14.8459C16.8146 15.0938 16.2021 15.5022 15.7063 16.0417H4.78337C2.91671 16.0417 1.45837 17.5001 1.45837 19.3667C1.45837 20.8542 2.43546 22.1522 3.86462 22.5605L10.4417 24.4417C10.7042 24.5147 10.9813 24.5584 11.2438 24.5584C11.7688 24.5584 12.2938 24.4126 12.7459 24.1355L16.0417 22.1813C16.4355 22.5605 16.9313 22.8667 17.5 23.0709V30.6251C15.8959 30.6251 14.5834 31.9376 14.5834 33.5417H23.3334C23.3334 31.9376 22.0209 30.6251 20.4167 30.6251V24.3834L27.1396 31.1063C27.7959 31.7626 28.6417 32.0834 29.4875 32.0834C30.3334 32.0834 31.1938 31.7626 31.8355 31.1063C32.8855 30.0563 33.1188 28.4376 32.3896 27.1397ZM11.2584 21.6417L4.66671 19.7605C4.49171 19.6876 4.37504 19.5417 4.37504 19.3667C4.37504 19.148 4.56462 18.9584 4.78337 18.9584H14.5834C14.5834 19.1772 14.5834 19.3959 14.6417 19.6001L11.2584 21.6417ZM18.9584 20.4167C18.1563 20.4167 17.5 19.7605 17.5 18.9584C17.5 18.1563 18.1563 17.5001 18.9584 17.5001C19.7605 17.5001 20.4167 18.1563 20.4167 18.9584C20.4167 19.7605 19.7605 20.4167 18.9584 20.4167ZM20.4167 14.7876V9.88758L25.4188 5.20633C25.5209 5.10425 25.6959 5.03133 25.9146 5.148C26.1042 5.26466 26.1771 5.51258 26.0605 5.70216L20.6063 14.8022L20.4167 14.7876ZM29.7792 29.0501C29.7063 29.123 29.4292 29.2834 29.1667 29.0501L22.123 21.9772C22.2396 21.8751 22.3563 21.7147 22.473 21.5688L26.5271 22.6042L29.8521 28.5542C29.9396 28.7147 29.8959 28.9188 29.7792 29.0501Z" fill="black"/>
</svg>
