<svg width="238" height="200" viewBox="0 0 238 200" fill="none" xmlns="http://www.w3.org/2000/svg">
<path d="M203.181 46.875C204.01 46.875 204.805 46.5458 205.391 45.9597C205.977 45.3737 206.306 44.5788 206.306 43.75V33.3438C206.303 30.6296 205.223 28.0276 203.304 26.1084C201.385 24.1892 198.783 23.1096 196.069 23.1063H179.275L175.444 11.8C175.183 11.0311 174.634 10.3937 173.912 10.0228C173.19 9.65183 172.352 9.57642 171.575 9.81252L80.6186 37.4625C79.8658 37.7372 79.2469 38.29 78.8894 39.0073C78.5319 39.7245 78.463 40.5514 78.6969 41.3179C78.9307 42.0844 79.4496 42.7321 80.1466 43.1275C80.8436 43.523 81.6657 43.6362 82.4436 43.4438L170.5 16.6688L178.894 41.45C179.16 42.2349 179.727 42.8819 180.47 43.2488C181.213 43.6157 182.071 43.6723 182.856 43.4063C183.641 43.1402 184.288 42.5733 184.655 41.8302C185.022 41.0871 185.078 40.2287 184.812 39.4438L181.394 29.35H196.075C198.275 29.35 200.062 31.1375 200.062 33.3375V43.75C200.056 45.475 201.456 46.875 203.181 46.875Z" fill="#003E62"/>
<path d="M228.125 93.75C227.296 93.75 226.501 94.0793 225.915 94.6653C225.329 95.2514 225 96.0462 225 96.875C225 97.7038 225.329 98.4987 225.915 99.0847C226.501 99.6708 227.296 100 228.125 100C230.319 100 231.25 100.931 231.25 103.125V140.625C231.25 142.819 230.319 143.75 228.125 143.75H178.125C175.931 143.75 175 142.819 175 140.625V109.375C175 107.181 175.931 106.25 178.125 106.25H215.625C216.454 106.25 217.249 105.921 217.835 105.335C218.421 104.749 218.75 103.954 218.75 103.125V65.625C218.75 59.9313 215.069 56.25 209.375 56.25H18.75C11.0437 56.25 6.25 51.4563 6.25 43.75C6.25 36.0438 11.0437 31.25 18.75 31.25H50.475L31.5625 37.4875C31.1586 37.604 30.7824 37.8007 30.4563 38.066C30.1303 38.3312 29.8611 38.6596 29.6648 39.0313C29.4686 39.403 29.3494 39.8105 29.3143 40.2293C29.2792 40.6482 29.329 41.0698 29.4607 41.469C29.5923 41.8682 29.8031 42.2367 30.0805 42.5525C30.3579 42.8683 30.6962 43.1249 31.075 43.3069C31.4539 43.4889 31.8656 43.5927 32.2855 43.6119C32.7054 43.6311 33.1248 43.5654 33.5187 43.4188L146.762 6.08753C147.152 5.95867 147.513 5.75428 147.824 5.48604C148.135 5.21779 148.39 4.89094 148.574 4.52415C148.759 4.15736 148.869 3.75781 148.9 3.34831C148.93 2.93881 148.879 2.52739 148.75 2.13753C148.621 1.74767 148.417 1.387 148.149 1.07613C147.88 0.765256 147.553 0.510262 147.187 0.325706C146.82 0.141149 146.42 0.0306451 146.011 0.000502176C145.601 -0.0296407 145.19 0.0211681 144.8 0.150028L69.175 25.0875C69.0312 25.0625 68.9 25 68.75 25H18.75C7.5375 25 0 32.5375 0 43.75V181.25C0 192.463 7.5375 200 18.75 200H209.375C215.069 200 218.75 196.319 218.75 190.625V159.375C218.75 158.546 218.421 157.751 217.835 157.165C217.249 156.579 216.454 156.25 215.625 156.25C214.796 156.25 214.001 156.579 213.415 157.165C212.829 157.751 212.5 158.546 212.5 159.375V190.625C212.5 192.819 211.569 193.75 209.375 193.75H18.75C11.0437 193.75 6.25 188.956 6.25 181.25V58.2C9.45625 60.9063 13.7 62.5 18.75 62.5H209.375C211.569 62.5 212.5 63.4313 212.5 65.625V100H178.125C172.431 100 168.75 103.681 168.75 109.375V140.625C168.75 146.319 172.431 150 178.125 150H228.125C233.819 150 237.5 146.319 237.5 140.625V103.125C237.5 97.4313 233.819 93.75 228.125 93.75Z" fill="#003E62"/>
<path d="M200 131.25C203.452 131.25 206.25 128.452 206.25 125C206.25 121.548 203.452 118.75 200 118.75C196.548 118.75 193.75 121.548 193.75 125C193.75 128.452 196.548 131.25 200 131.25Z" fill="#003E62"/>
</svg>
