<svg width="200" height="200" viewBox="0 0 200 200" fill="none" xmlns="http://www.w3.org/2000/svg">
<path d="M125 154.167C115.093 154.176 105.375 151.459 96.9094 146.315C88.4434 141.171 81.5556 133.797 76.9998 125H119.833C123 125 125.917 123.25 127.25 120.417C130 114.917 126 108.333 119.833 108.333H71.4998C71.0832 105.583 70.8332 102.833 70.8332 100C70.8332 97.1667 71.0832 94.4167 71.4998 91.6667H119.833C123 91.6667 125.917 89.9167 127.25 87.0833C127.904 85.8164 128.22 84.4021 128.167 82.9772C128.115 81.5524 127.695 80.1652 126.949 78.95C126.203 77.7348 125.156 76.7327 123.91 76.0408C122.663 75.3488 121.259 74.9903 119.833 75H76.9998C81.5637 66.2099 88.4533 58.8415 96.9175 53.6983C105.382 48.5551 115.096 45.8346 125 45.8333C135.417 45.8333 145.167 48.8333 153.5 53.9167C157.667 56.5 163.083 56.0833 166.583 52.5833C171.417 47.75 170.333 39.8333 164.5 36.25C152.63 28.9115 138.955 25.0166 125 25C92.3332 25 64.6665 45.9167 54.3332 75H30.1665C26.9998 75 24.0832 76.75 22.6665 79.5833C19.9165 85.1667 23.9165 91.6667 30.1665 91.6667H50.4998C49.8249 97.2017 49.8249 102.798 50.4998 108.333H30.1665C26.9998 108.333 24.0832 110.083 22.7498 112.917C19.9165 118.5 23.9165 125 30.1665 125H54.3332C64.6665 154.083 92.3332 175 125 175C139.5 175 153 170.917 164.5 163.75C170.25 160.167 171.333 152.167 166.5 147.333C163 143.833 157.583 143.417 153.416 146.083C145.166 151.25 135.5 154.167 125 154.167Z" fill="black"/>
</svg>
