<svg width="35" height="35" viewBox="0 0 35 35" fill="none" xmlns="http://www.w3.org/2000/svg">
<path d="M3.48075 9.78085C3.48075 12.3953 4.354 14.2818 6.07425 15.3896C7.48475 16.2996 9.11925 16.4361 9.96975 16.4361C10.1763 16.4361 10.3425 16.4256 10.458 16.4186C10.458 16.4186 10.1885 18.1756 11.4905 19.9116H11.431C9.17525 19.9116 1.81825 20.3823 1.81825 26.4338C1.81825 32.5868 8.575 32.9001 9.93125 32.9001C10.038 32.9001 10.101 32.8966 10.101 32.8966C10.115 32.8966 10.2113 32.9001 10.3775 32.9001C11.2473 32.9001 13.496 32.7916 15.5838 31.7748C18.2928 30.4623 19.6665 28.1716 19.6665 24.9761C19.6665 21.8891 17.5735 20.0516 16.0458 18.7076C15.113 17.8868 14.3063 17.1798 14.3063 16.4921C14.3063 15.7921 14.896 15.2653 15.6398 14.5986C16.8455 13.5223 17.983 11.9876 17.983 9.0861C17.983 6.53635 17.6523 4.8231 15.6135 3.73635C15.8253 3.62785 16.5778 3.5491 16.9488 3.4966C18.053 3.3461 19.6683 3.1746 19.6683 2.27335V2.1001H11.62C11.5395 2.1036 3.48075 2.4011 3.48075 9.78085ZM16.4728 25.5536C16.6268 28.0141 14.5215 29.8288 11.3593 30.0581C8.148 30.2943 5.5055 28.8488 5.3515 26.3901C5.27625 25.2071 5.796 24.0521 6.81275 23.1298C7.8435 22.1971 9.25925 21.6196 10.7993 21.5058C10.9813 21.4953 11.1615 21.4848 11.3418 21.4848C14.315 21.4866 16.3275 23.2331 16.4728 25.5536ZM14.371 8.0956C15.1603 10.8746 13.9685 13.7761 12.068 14.3133C11.8492 14.3743 11.6231 14.4049 11.396 14.4043C9.6565 14.4043 7.93275 12.6438 7.29225 10.2166C6.93525 8.8586 6.965 7.6651 7.3745 6.5206C7.77525 5.39185 8.49975 4.6341 9.40975 4.37685C9.6285 4.3156 9.85425 4.2841 10.0835 4.2841C12.1835 4.2841 13.5345 5.1556 14.371 8.0956ZM28 14.0001V8.7501H24.5V14.0001H19.25V17.5001H24.5V22.7501H28V17.5001H33.25V14.0001H28Z" fill="black"/>
</svg>
