<svg width="200" height="200" viewBox="0 0 200 200" fill="none" xmlns="http://www.w3.org/2000/svg">
<path d="M58.3335 58.3333H50.0002C45.5799 58.3333 41.3407 60.0892 38.215 63.2148C35.0894 66.3404 33.3335 70.5796 33.3335 74.9999V150C33.3335 154.42 35.0894 158.659 38.215 161.785C41.3407 164.911 45.5799 166.667 50.0002 166.667H125C129.42 166.667 133.66 164.911 136.785 161.785C139.911 158.659 141.667 154.42 141.667 150V141.667" stroke="black" stroke-width="10" stroke-linecap="round" stroke-linejoin="round"/>
<path d="M133.333 41.6666L158.333 66.6666M169.875 54.8749C173.157 51.5929 175.001 47.1414 175.001 42.4999C175.001 37.8584 173.157 33.407 169.875 30.1249C166.593 26.8429 162.142 24.999 157.5 24.999C152.858 24.999 148.407 26.8429 145.125 30.1249L75 99.9999V125H100L169.875 54.8749Z" stroke="black" stroke-width="10" stroke-linecap="round" stroke-linejoin="round"/>
</svg>
