<svg width="200" height="200" viewBox="0 0 200 200" fill="none" xmlns="http://www.w3.org/2000/svg">
<path fill-rule="evenodd" clip-rule="evenodd" d="M69.1079 105.892C67.5456 104.329 66.668 102.21 66.668 100C66.668 97.7903 67.5456 95.6711 69.1079 94.1083L116.25 46.9667C117.018 46.1708 117.938 45.5359 118.954 45.0992C119.971 44.6624 121.065 44.4325 122.171 44.4229C123.278 44.4133 124.375 44.6242 125.399 45.0432C126.423 45.4622 127.354 46.0809 128.136 46.8634C128.919 47.6458 129.537 48.5763 129.956 49.6004C130.375 50.6245 130.586 51.7219 130.577 52.8284C130.567 53.9348 130.337 55.0283 129.9 56.045C129.464 57.0617 128.829 57.9813 128.033 58.75L86.7829 100L128.033 141.25C129.551 142.822 130.391 144.927 130.372 147.112C130.353 149.297 129.476 151.387 127.931 152.932C126.386 154.477 124.296 155.353 122.111 155.372C119.926 155.391 117.821 154.551 116.25 153.033L69.1079 105.892Z" fill="black"/>
</svg>
