<svg width="200" height="200" viewBox="0 0 200 200" fill="none" xmlns="http://www.w3.org/2000/svg">
<path d="M174.999 100C174.999 101.658 174.341 103.247 173.168 104.419C171.996 105.592 170.407 106.25 168.749 106.25H46.335L91.9209 151.828C92.5016 152.409 92.9623 153.098 93.2765 153.857C93.5908 154.616 93.7525 155.429 93.7525 156.25C93.7525 157.071 93.5908 157.884 93.2765 158.643C92.9623 159.402 92.5016 160.091 91.9209 160.672C91.3402 161.253 90.6509 161.713 89.8922 162.027C89.1335 162.342 88.3203 162.503 87.4991 162.503C86.6778 162.503 85.8647 162.342 85.106 162.027C84.3472 161.713 83.6579 161.253 83.0772 160.672L26.8272 104.422C26.2461 103.841 25.7851 103.152 25.4706 102.393C25.156 101.635 24.9941 100.821 24.9941 100C24.9941 99.1786 25.156 98.3654 25.4706 97.6066C25.7851 96.8479 26.2461 96.1586 26.8272 95.5781L83.0772 39.3281C84.2499 38.1554 85.8405 37.4965 87.4991 37.4965C89.1576 37.4965 90.7482 38.1554 91.9209 39.3281C93.0937 40.5009 93.7525 42.0915 93.7525 43.75C93.7525 45.4085 93.0937 46.9991 91.9209 48.1719L46.335 93.75H168.749C170.407 93.75 171.996 94.4085 173.168 95.5806C174.341 96.7527 174.999 98.3424 174.999 100Z" fill="black"/>
</svg>
