<svg width="200" height="200" viewBox="0 0 200 200" fill="none" xmlns="http://www.w3.org/2000/svg">
<path fill-rule="evenodd" clip-rule="evenodd" d="M100.163 25C81.3419 25 64.196 31.2167 54.0502 36.2958C53.1335 36.7542 52.278 37.2014 51.4835 37.6375C49.9085 38.4958 48.5669 39.2958 47.5002 40L59.0419 56.9917L64.4752 59.1542C85.7085 69.8667 114.184 69.8667 135.421 59.1542L141.588 55.9542L152.5 40C150.237 38.5296 147.887 37.198 145.463 36.0125C135.367 30.9875 118.629 25 100.167 25M73.3252 44.2333C69.2391 43.4644 65.2027 42.4514 61.2377 41.2C70.7419 36.9792 84.9044 32.5 100.167 32.5C110.738 32.5 120.734 34.65 129 37.375C119.313 38.7375 108.975 41.05 99.1252 43.8958C91.3752 46.1375 82.3169 45.8958 73.3252 44.2333ZM139.825 65.3333L138.8 65.85C115.442 77.6333 84.4585 77.6333 61.1002 65.85L60.1294 65.3583C25.0335 103.862 -1.75812 174.988 100.163 174.988C202.084 174.988 174.642 102.542 139.825 65.3333ZM95.8335 100C93.6234 100 91.5038 100.878 89.941 102.441C88.3782 104.004 87.5002 106.123 87.5002 108.333C87.5002 110.543 88.3782 112.663 89.941 114.226C91.5038 115.789 93.6234 116.667 95.8335 116.667V100ZM104.167 91.6667V87.5H95.8335V91.6667C91.4133 91.6667 87.174 93.4226 84.0484 96.5482C80.9228 99.6738 79.1669 103.913 79.1669 108.333C79.1669 112.754 80.9228 116.993 84.0484 120.118C87.174 123.244 91.4133 125 95.8335 125V141.667C92.2085 141.667 89.121 139.354 87.971 136.112C87.8004 135.582 87.5252 135.091 87.1616 134.669C86.798 134.247 86.3534 133.902 85.8542 133.655C85.355 133.408 84.8112 133.263 84.2551 133.229C83.699 133.196 83.1418 133.274 82.6165 133.46C82.0912 133.645 81.6085 133.935 81.1968 134.31C80.7852 134.685 80.453 135.14 80.22 135.646C79.9869 136.152 79.8577 136.699 79.84 137.256C79.8223 137.813 79.9165 138.368 80.1169 138.887C81.2657 142.138 83.3941 144.952 86.2088 146.942C89.0236 148.932 92.3863 150.001 95.8335 150V154.167H104.167V150C108.587 150 112.826 148.244 115.952 145.118C119.078 141.993 120.834 137.754 120.834 133.333C120.834 128.913 119.078 124.674 115.952 121.548C112.826 118.423 108.587 116.667 104.167 116.667V100C107.792 100 110.879 102.312 112.029 105.554C112.2 106.085 112.475 106.575 112.839 106.997C113.202 107.42 113.647 107.764 114.146 108.012C114.645 108.259 115.189 108.404 115.745 108.437C116.301 108.471 116.859 108.392 117.384 108.207C117.909 108.021 118.392 107.732 118.804 107.357C119.215 106.981 119.547 106.527 119.78 106.021C120.013 105.515 120.143 104.967 120.16 104.411C120.178 103.854 120.084 103.299 119.884 102.779C118.735 99.5289 116.606 96.7149 113.792 94.7247C110.977 92.7345 107.614 91.6661 104.167 91.6667ZM104.167 125V141.667C106.377 141.667 108.497 140.789 110.059 139.226C111.622 137.663 112.5 135.543 112.5 133.333C112.5 131.123 111.622 129.004 110.059 127.441C108.497 125.878 106.377 125 104.167 125Z" fill="black"/>
</svg>
