<svg width="35" height="35" viewBox="0 0 35 35" fill="none" xmlns="http://www.w3.org/2000/svg">
<path d="M1.45837 1.45825V16.0416H33.5417V1.45825H1.45837ZM18.9584 10.2083H5.83337V7.29158H18.9584V10.2083ZM23.3334 10.2083C23.0449 10.2083 22.763 10.1227 22.5232 9.96248C22.2833 9.80223 22.0964 9.57447 21.986 9.308C21.8757 9.04152 21.8468 8.7483 21.9031 8.46541C21.9593 8.18252 22.0982 7.92267 22.3022 7.71872C22.5061 7.51477 22.766 7.37588 23.0489 7.31961C23.3318 7.26334 23.625 7.29222 23.8915 7.40259C24.1579 7.51297 24.3857 7.69989 24.5459 7.93971C24.7062 8.17953 24.7917 8.46149 24.7917 8.74992C24.7917 9.13669 24.6381 9.50762 24.3646 9.78112C24.0911 10.0546 23.7201 10.2083 23.3334 10.2083ZM27.7084 10.2083C27.4199 10.2083 27.138 10.1227 26.8982 9.96248C26.6583 9.80223 26.4714 9.57447 26.361 9.308C26.2507 9.04152 26.2218 8.7483 26.2781 8.46541C26.3343 8.18252 26.4732 7.92267 26.6772 7.71872C26.8811 7.51477 27.141 7.37588 27.4239 7.31961C27.7068 7.26334 28 7.29222 28.2665 7.40259C28.5329 7.51297 28.7607 7.69989 28.9209 7.93971C29.0812 8.17953 29.1667 8.46149 29.1667 8.74992C29.1667 9.13669 29.0131 9.50762 28.7396 9.78112C28.4661 10.0546 28.0951 10.2083 27.7084 10.2083ZM33.0896 26.7895L34.7521 25.3312L33.2938 22.8083L31.1792 23.5228C30.711 23.1282 30.1782 22.8174 29.6042 22.6041L29.1667 20.4166H26.25L25.8125 22.5895C25.2386 22.8028 24.7057 23.1136 24.2375 23.5083L22.123 22.7937L20.6646 25.3166L22.3271 26.7749C22.2104 27.3819 22.2104 28.0055 22.3271 28.6124L20.6646 30.0708L22.123 32.5937L24.2375 31.8791C24.7057 32.2738 25.2385 32.5846 25.8125 32.7978L26.25 34.9999H29.1667L29.6042 32.827C30.1782 32.6137 30.711 32.3029 31.1792 31.9082L33.2938 32.6228L34.7521 30.0999L33.0896 28.6416C33.2063 28.0297 33.2063 27.4014 33.0896 26.7895ZM27.7084 30.6249C27.1315 30.6249 26.5676 30.4539 26.088 30.1334C25.6083 29.8129 25.2345 29.3574 25.0137 28.8244C24.793 28.2915 24.7352 27.705 24.8477 27.1392C24.9603 26.5735 25.2381 26.0538 25.646 25.6459C26.0539 25.238 26.5736 24.9602 27.1394 24.8476C27.7051 24.7351 28.2916 24.7928 28.8245 25.0136C29.3575 25.2344 29.813 25.6082 30.1335 26.0878C30.454 26.5675 30.625 27.1314 30.625 27.7083C30.6227 28.4811 30.3147 29.2216 29.7682 29.7681C29.2217 30.3146 28.4812 30.6226 27.7084 30.6249Z" fill="black"/>
<path d="M17.5 27.7083H5.83337V24.7916H17.9288C18.6616 22.3486 20.2814 20.2679 22.47 18.9583H1.45837V33.5416H19.3375C18.14 31.8322 17.4984 29.7953 17.5 27.7083Z" fill="black"/>
</svg>
