<svg width="36" height="36" viewBox="0 0 36 36" fill="none" xmlns="http://www.w3.org/2000/svg">
<path fill-rule="evenodd" clip-rule="evenodd" d="M27.9583 4.625C29.1186 4.625 30.2314 5.08594 31.0519 5.90641C31.8724 6.72688 32.3333 7.83968 32.3333 9V23.5833C32.3333 24.7437 31.8724 25.8565 31.0519 26.6769C30.2314 27.4974 29.1186 27.9583 27.9583 27.9583H10.9439L6.08329 31.6042C4.88163 32.5054 3.16663 31.6479 3.16663 30.1458V9C3.16663 7.83968 3.62756 6.72688 4.44803 5.90641C5.26851 5.08594 6.3813 4.625 7.54163 4.625H27.9583ZM16.2916 17.75H11.9166C11.5299 17.75 11.1589 17.9036 10.8854 18.1771C10.6119 18.4506 10.4583 18.8216 10.4583 19.2083C10.4583 19.5951 10.6119 19.966 10.8854 20.2395C11.1589 20.513 11.5299 20.6667 11.9166 20.6667H16.2916C16.6784 20.6667 17.0493 20.513 17.3228 20.2395C17.5963 19.966 17.75 19.5951 17.75 19.2083C17.75 18.8216 17.5963 18.4506 17.3228 18.1771C17.0493 17.9036 16.6784 17.75 16.2916 17.75ZM23.5833 11.9167H11.9166C11.5449 11.9171 11.1874 12.0594 10.9171 12.3146C10.6468 12.5697 10.4842 12.9185 10.4624 13.2895C10.4406 13.6606 10.5614 14.026 10.7999 14.311C11.0385 14.596 11.3769 14.7792 11.746 14.8231L11.9166 14.8333H23.5833C23.955 14.8329 24.3125 14.6906 24.5828 14.4354C24.8531 14.1803 25.0157 13.8315 25.0375 13.4605C25.0593 13.0894 24.9386 12.724 24.7 12.439C24.4614 12.154 24.123 11.9708 23.7539 11.9269L23.5833 11.9167Z" fill="black"/>
</svg>
