<svg width="131" height="102" viewBox="0 0 131 102" fill="none" xmlns="http://www.w3.org/2000/svg">
<path d="M83.4866 33.6227C80.1172 33.6973 76.7939 34.3665 73.7066 35.5921C70.6193 36.8177 67.8284 38.5758 65.4932 40.7658C63.158 42.9559 61.3244 45.5351 60.0969 48.3562C58.8695 51.1773 58.2723 54.185 58.3394 57.2075C58.4062 60.2303 59.1362 63.2087 60.4875 65.9728C61.8389 68.7369 63.7853 71.2324 66.2154 73.3169C68.6456 75.4013 71.512 77.0339 74.6508 78.1213C77.7897 79.2088 81.1396 79.7298 84.5092 79.6546C90.497 79.5216 95.9535 77.4972 100.252 74.3181L102.585 76.3196C102.134 77.1489 101.988 78.0846 102.169 78.9905C102.351 79.8964 102.85 80.7254 103.594 81.3568L115.847 91.9382C117.749 93.5715 120.8 93.5037 122.63 91.7875L124.872 89.6843C125.75 88.8558 126.229 87.751 126.203 86.611C126.178 85.4711 125.651 84.3886 124.737 83.5999L112.405 73.093C111.663 72.4588 110.712 72.0573 109.693 71.948C108.674 71.8387 107.641 72.0276 106.748 72.4865L104.415 70.4849C107.334 67.0282 109.113 62.9081 109.547 58.597C109.98 54.2858 109.051 49.9581 106.867 46.1101C104.682 42.2622 101.33 39.0497 97.1947 36.841C93.0595 34.6324 88.3085 33.517 83.4866 33.6227ZM83.581 37.8729C89.1288 37.7497 94.4932 39.6084 98.4943 43.0403C102.495 46.4722 104.805 51.1961 104.916 56.1728C105.026 61.1495 102.929 65.9713 99.0838 69.5775C95.2391 73.1837 89.9625 75.2789 84.4147 75.4021C78.867 75.5254 73.5025 73.6666 69.5014 70.2347C65.5004 66.8028 63.1905 62.0789 63.0799 57.1022C62.9694 52.1255 65.0672 47.3037 68.9119 43.6975C72.7566 40.0913 78.0332 37.9962 83.581 37.8729ZM70.6275 50.995C69.2779 53.0523 68.5944 55.4044 68.6542 57.7857C68.6885 59.4711 69.0934 61.1323 69.8455 62.6739C70.5977 64.2156 71.6823 65.6075 73.0373 66.7697C74.3923 67.9319 75.9909 68.8417 77.7416 69.4468C79.4922 70.0519 81.3605 70.3404 83.2392 70.2959C86.1926 70.2249 89.0549 69.3421 91.4392 67.767C90.7885 67.8357 90.1345 67.8737 89.4797 67.881C87.0531 67.9404 84.6396 67.5692 82.3778 66.7886C80.1161 66.008 78.0508 64.8334 76.3005 63.3323C74.5502 61.8312 73.1494 60.0332 72.1787 58.0415C71.2079 56.0499 70.6863 53.9039 70.6438 51.7268C70.6384 51.4828 70.6199 51.2392 70.6275 50.995Z" fill="#003E62"/>
<rect x="2.5" y="2.5" width="126" height="75" rx="4.5" stroke="#003E62" stroke-width="5"/>
<rect x="57" y="75" width="17" height="24" rx="7" fill="#003E62"/>
<rect x="43" y="96" width="45" height="6" rx="3" fill="#003E62"/>
<path d="M112.262 30.431C112.579 29.9786 112.469 29.3551 112.017 29.0383L104.644 23.8761C104.192 23.5593 103.568 23.6693 103.252 24.1217C102.935 24.5741 103.045 25.1976 103.497 25.5144L110.05 30.103L105.462 36.6562C105.145 37.1086 105.255 37.7322 105.707 38.049C106.16 38.3657 106.783 38.2558 107.1 37.8034L112.262 30.431ZM63.3611 39.351L111.617 30.8423L111.269 28.8726L63.0139 37.3814L63.3611 39.351Z" fill="#003E62"/>
<path d="M65 39L49 55H27" stroke="#003E62" stroke-width="2"/>
</svg>
