<svg width="51" height="51" viewBox="0 0 51 51" fill="none" xmlns="http://www.w3.org/2000/svg">
<path d="M12.9997 40.0833V21.3333C12.9997 18.0181 14.3166 14.8387 16.6608 12.4945C19.005 10.1503 22.1845 8.83331 25.4997 8.83331C28.8149 8.83331 31.9943 10.1503 34.3385 12.4945C36.6827 14.8387 37.9997 18.0181 37.9997 21.3333V40.0833M12.9997 40.0833H37.9997M12.9997 40.0833H8.83301M37.9997 40.0833H42.1663M23.4163 46.3333H27.583" stroke="black" stroke-width="3" stroke-linecap="round" stroke-linejoin="round"/>
<path d="M25.4993 8.83332C26.6499 8.83332 27.5827 7.90058 27.5827 6.74999C27.5827 5.5994 26.6499 4.66666 25.4993 4.66666C24.3488 4.66666 23.416 5.5994 23.416 6.74999C23.416 7.90058 24.3488 8.83332 25.4993 8.83332Z" stroke="black" stroke-width="3"/>
</svg>
