<svg width="200" height="200" viewBox="0 0 200 200" fill="none" xmlns="http://www.w3.org/2000/svg">
<path d="M33.3333 108.333H83.3333C87.9167 108.333 91.6667 104.583 91.6667 100V33.3333C91.6667 28.75 87.9167 25 83.3333 25H33.3333C28.75 25 25 28.75 25 33.3333V100C25 104.583 28.75 108.333 33.3333 108.333ZM33.3333 175H83.3333C87.9167 175 91.6667 171.25 91.6667 166.667V133.333C91.6667 128.75 87.9167 125 83.3333 125H33.3333C28.75 125 25 128.75 25 133.333V166.667C25 171.25 28.75 175 33.3333 175ZM116.667 175H166.667C171.25 175 175 171.25 175 166.667V100C175 95.4167 171.25 91.6667 166.667 91.6667H116.667C112.083 91.6667 108.333 95.4167 108.333 100V166.667C108.333 171.25 112.083 175 116.667 175ZM108.333 33.3333V66.6667C108.333 71.25 112.083 75 116.667 75H166.667C171.25 75 175 71.25 175 66.6667V33.3333C175 28.75 171.25 25 166.667 25H116.667C112.083 25 108.333 28.75 108.333 33.3333Z" fill="black"/>
</svg>
