<svg width="200" height="200" viewBox="0 0 200 200" fill="none" xmlns="http://www.w3.org/2000/svg">
<path d="M47.5 40C40.2065 40 33.2118 42.8973 28.0546 48.0546C22.8973 53.2118 20 60.2065 20 67.5V80H180V67.5C180 60.2065 177.103 53.2118 171.945 48.0546C166.788 42.8973 159.793 40 152.5 40H47.5ZM180 90H20V132.5C20 139.793 22.8973 146.788 28.0546 151.945C33.2118 157.103 40.2065 160 47.5 160H152.5C159.793 160 166.788 157.103 171.945 151.945C177.103 146.788 180 139.793 180 132.5V90ZM135 130H155C156.326 130 157.598 130.527 158.536 131.464C159.473 132.402 160 133.674 160 135C160 136.326 159.473 137.598 158.536 138.536C157.598 139.473 156.326 140 155 140H135C133.674 140 132.402 139.473 131.464 138.536C130.527 137.598 130 136.326 130 135C130 133.674 130.527 132.402 131.464 131.464C132.402 130.527 133.674 130 135 130Z" fill="black"/>
</svg>
