<svg width="200" height="200" viewBox="0 0 200 200" fill="none" xmlns="http://www.w3.org/2000/svg">
<path fill-rule="evenodd" clip-rule="evenodd" d="M130.891 94.1083C132.453 95.6711 133.331 97.7903 133.331 100C133.331 102.21 132.453 104.329 130.891 105.892L83.7493 153.033C82.9806 153.829 82.061 154.464 81.0443 154.901C80.0276 155.338 78.9341 155.567 77.8276 155.577C76.7211 155.587 75.6238 155.376 74.5997 154.957C73.5755 154.538 72.6451 153.919 71.8627 153.137C71.0802 152.354 70.4614 151.424 70.0424 150.4C69.6234 149.375 69.4126 148.278 69.4222 147.172C69.4318 146.065 69.6617 144.972 70.0984 143.955C70.5352 142.938 71.17 142.019 71.9659 141.25L113.216 100L71.9659 58.75C70.448 57.1783 69.608 55.0733 69.627 52.8883C69.646 50.7034 70.5224 48.6133 72.0675 47.0682C73.6125 45.5231 75.7026 44.6467 77.8876 44.6277C80.0726 44.6087 82.1776 45.4487 83.7493 46.9667L130.891 94.1083Z" fill="black"/>
</svg>
