<svg width="35" height="35" viewBox="0 0 35 35" fill="none" xmlns="http://www.w3.org/2000/svg">
<path d="M30.6253 30.625L24.2918 24.2915M24.2918 24.2915C25.3751 23.2081 26.2345 21.9219 26.8208 20.5064C27.4072 19.0909 27.7089 17.5738 27.7089 16.0417C27.7089 14.5095 27.4072 12.9924 26.8208 11.5769C26.2345 10.1614 25.3751 8.87525 24.2918 7.79187C23.2084 6.70849 21.9222 5.84911 20.5067 5.26279C19.0912 4.67647 17.5741 4.37469 16.042 4.37469C14.5098 4.37469 12.9927 4.67647 11.5772 5.26279C10.1617 5.84911 8.87555 6.70849 7.79218 7.79187C5.60419 9.97985 4.375 12.9474 4.375 16.0417C4.375 19.1359 5.60419 22.1035 7.79218 24.2915C9.98016 26.4794 12.9477 27.7086 16.042 27.7086C19.1362 27.7086 22.1038 26.4794 24.2918 24.2915Z" stroke="#121212" stroke-opacity="0.3" stroke-width="2" stroke-linecap="round" stroke-linejoin="round"/>
</svg>
