<svg width="36" height="36" viewBox="0 0 36 36" fill="none" xmlns="http://www.w3.org/2000/svg">
<path d="M13.375 3.16664C12.6886 3.16859 12.0197 3.23421 11.3684 3.36352C11.1553 3.40591 10.9596 3.5108 10.8064 3.66482C10.6531 3.81884 10.5492 4.01501 10.5079 4.22831L9.98294 6.93935C9.97305 6.99063 9.95226 7.03919 9.92197 7.08174C9.89168 7.12429 9.85261 7.15984 9.80739 7.18597C9.76217 7.21211 9.71187 7.22822 9.65988 7.23323C9.60789 7.23823 9.55543 7.23201 9.50606 7.21498L6.89565 6.31373C6.69072 6.2426 6.46927 6.23402 6.25945 6.28907C6.04963 6.34412 5.86092 6.46032 5.71731 6.62289C4.8201 7.63969 4.13446 8.82506 3.70044 10.1098C3.63082 10.3155 3.62402 10.5373 3.68089 10.7468C3.73777 10.9564 3.85575 11.1443 4.01981 11.2866L6.10815 13.0979C6.14767 13.1321 6.17938 13.1744 6.20111 13.222C6.22284 13.2696 6.23408 13.3212 6.23408 13.3735C6.23408 13.4258 6.22284 13.4775 6.20111 13.525C6.17938 13.5726 6.14767 13.6149 6.10815 13.6491L4.01981 15.4619C3.85578 15.6039 3.7377 15.7914 3.68057 16.0007C3.62344 16.2101 3.62985 16.4316 3.69898 16.6373C4.13344 17.9221 4.81958 19.1075 5.71731 20.1241C5.86064 20.2867 6.04902 20.403 6.25855 20.4583C6.46808 20.5136 6.68932 20.5054 6.89419 20.4348L9.50606 19.5335C9.55543 19.5165 9.60789 19.5103 9.65988 19.5153C9.71187 19.5203 9.76217 19.5364 9.80739 19.5625C9.85261 19.5887 9.89168 19.6242 9.92197 19.6668C9.95226 19.7093 9.97305 19.7579 9.98294 19.8091L10.5079 22.5202C10.5492 22.7335 10.6531 22.9297 10.8064 23.0837C10.9596 23.2377 11.1553 23.3426 11.3684 23.385C12.6979 23.6515 14.0671 23.6505 15.3963 23.3821C15.6088 23.3392 15.8038 23.234 15.9565 23.0801C16.1092 22.9261 16.2127 22.7302 16.2538 22.5173L16.7788 19.8091C16.7885 19.7577 16.8091 19.709 16.8394 19.6663C16.8696 19.6236 16.9086 19.5879 16.9539 19.5616C16.9991 19.5353 17.0495 19.519 17.1015 19.514C17.1536 19.5089 17.2062 19.515 17.2556 19.5321L19.8588 20.4319C20.0636 20.5025 20.2849 20.5107 20.4944 20.4554C20.7039 20.4001 20.8923 20.2838 21.0356 20.1212C21.934 19.1028 22.6202 17.9154 23.054 16.6285C23.1228 16.4231 23.129 16.2018 23.0719 15.9928C23.0148 15.7838 22.8969 15.5965 22.7331 15.4546L20.6536 13.6491C20.614 13.6149 20.5823 13.5726 20.5606 13.525C20.5389 13.4775 20.5276 13.4258 20.5276 13.3735C20.5276 13.3212 20.5389 13.2696 20.5606 13.222C20.5823 13.1744 20.614 13.1321 20.6536 13.0979L22.7331 11.2925C22.8972 11.1505 23.0153 10.9629 23.0724 10.7536C23.1295 10.5443 23.1231 10.3227 23.054 10.1171C22.62 8.83068 21.9339 7.64377 21.0356 6.62581C20.8922 6.46299 20.7036 6.34651 20.4937 6.2912C20.2839 6.23588 20.0624 6.24423 19.8573 6.31518L17.2556 7.21352C17.2062 7.23054 17.1536 7.23672 17.1015 7.23163C17.0495 7.22653 16.9991 7.21029 16.9539 7.18401C16.9086 7.15772 16.8696 7.12201 16.8394 7.07929C16.8091 7.03657 16.7885 6.98785 16.7788 6.93643L16.2538 4.22977C16.2127 4.01685 16.1092 3.82096 15.9565 3.66698C15.8038 3.513 15.6088 3.40788 15.3963 3.36498C14.7308 3.23184 14.0537 3.1654 13.375 3.16664ZM10.8244 13.375C10.8244 12.6981 11.0933 12.049 11.5719 11.5704C12.0505 11.0918 12.6996 10.8229 13.3765 10.8229C14.0533 10.8229 14.7025 11.0918 15.1811 11.5704C15.6597 12.049 15.9286 12.6981 15.9286 13.375C15.9286 14.0518 15.6597 14.701 15.1811 15.1796C14.7025 15.6582 14.0533 15.9271 13.3765 15.9271C12.6996 15.9271 12.0505 15.6582 11.5719 15.1796C11.0933 14.701 10.8244 14.0518 10.8244 13.375ZM19.8077 21.81C19.8972 21.6968 20.02 21.6148 20.1588 21.5755C20.2976 21.5362 20.4452 21.5417 20.5806 21.5912L22.4167 22.2256C22.5065 22.2568 22.602 22.2683 22.6967 22.2593C22.7914 22.2503 22.883 22.221 22.9654 22.1734C23.0477 22.1258 23.1188 22.061 23.1739 21.9834C23.2289 21.9059 23.2666 21.8174 23.2844 21.7239L23.6534 19.8164C23.6785 19.6746 23.7477 19.5443 23.8511 19.4441C23.9545 19.3438 24.0869 19.2787 24.2294 19.2579C24.7688 19.1906 25.3145 19.1906 25.854 19.2579C25.9965 19.2787 26.1289 19.3438 26.2323 19.4441C26.3357 19.5443 26.4049 19.6746 26.43 19.8164L26.799 21.7239C26.817 21.8172 26.8548 21.9056 26.9099 21.983C26.965 22.0605 27.0361 22.1251 27.1184 22.1727C27.2007 22.2203 27.2922 22.2496 27.3868 22.2587C27.4814 22.2679 27.5768 22.2566 27.6667 22.2256L29.5042 21.5912C29.6393 21.5424 29.7863 21.5373 29.9244 21.5765C30.0626 21.6158 30.1849 21.6974 30.2742 21.81C30.6008 22.2402 30.875 22.7141 31.0894 23.2173C31.2046 23.49 31.1171 23.8006 30.894 23.9946L29.424 25.2706C29.3525 25.3329 29.2952 25.4098 29.256 25.496C29.2167 25.5823 29.1964 25.676 29.1964 25.7708C29.1964 25.8656 29.2167 25.9593 29.256 26.0456C29.2952 26.1319 29.3525 26.2087 29.424 26.271L30.894 27.5456C31.004 27.6383 31.0821 27.7632 31.1171 27.9027C31.1522 28.0422 31.1425 28.1892 31.0894 28.3229C30.8745 28.8284 30.6028 29.298 30.2742 29.7316C30.1849 29.8442 30.0626 29.9258 29.9244 29.9651C29.7863 30.0044 29.6393 29.9992 29.5042 29.9504L27.6667 29.316C27.5769 29.285 27.4816 29.2737 27.3871 29.2827C27.2926 29.2918 27.2011 29.321 27.1189 29.3684C27.0366 29.4158 26.9655 29.4803 26.9103 29.5576C26.8551 29.6348 26.8172 29.723 26.799 29.8162L26.43 31.7252C26.4049 31.867 26.3357 31.9973 26.2323 32.0976C26.1289 32.1978 25.9965 32.263 25.854 32.2837C25.3145 32.351 24.7688 32.351 24.2294 32.2837C24.0869 32.263 23.9545 32.1978 23.8511 32.0976C23.7477 31.9973 23.6785 31.867 23.6534 31.7252L23.2844 29.8162C23.2664 29.7229 23.2286 29.6346 23.1735 29.5572C23.1184 29.4798 23.0472 29.4152 22.9649 29.3677C22.8826 29.3203 22.791 29.2911 22.6964 29.2822C22.6018 29.2733 22.5064 29.2848 22.4167 29.316L20.5792 29.9504C20.4441 29.9992 20.2971 30.0044 20.1589 29.9651C20.0208 29.9258 19.8984 29.8442 19.8092 29.7316C19.48 29.2977 19.2062 28.8245 18.994 28.3229C18.9409 28.1892 18.9312 28.0422 18.9662 27.9027C19.0013 27.7632 19.0794 27.6383 19.1894 27.5456L20.6594 26.271C20.7309 26.2087 20.7881 26.1319 20.8274 26.0456C20.8666 25.9593 20.887 25.8656 20.887 25.7708C20.887 25.676 20.8666 25.5823 20.8274 25.496C20.7881 25.4098 20.7309 25.3329 20.6594 25.2706L19.1909 23.9946C19.0806 23.9021 19.0022 23.7772 18.9669 23.6377C18.9316 23.4982 18.941 23.3511 18.994 23.2173C19.2069 22.7127 19.4811 22.2402 19.8077 21.81ZM26.8675 25.7708C26.8675 25.5312 26.8203 25.294 26.7286 25.0727C26.637 24.8513 26.5026 24.6502 26.3332 24.4808C26.1638 24.3114 25.9626 24.177 25.7413 24.0853C25.52 23.9936 25.2827 23.9464 25.0431 23.9464C24.8036 23.9464 24.5663 23.9936 24.345 24.0853C24.1236 24.177 23.9225 24.3114 23.7531 24.4808C23.5837 24.6502 23.4493 24.8513 23.3576 25.0727C23.266 25.294 23.2188 25.5312 23.2188 25.7708C23.2188 26.2545 23.4109 26.7183 23.7529 27.0603C24.0949 27.4023 24.5588 27.5945 25.0424 27.5945C25.5261 27.5945 25.9899 27.4023 26.3319 27.0603C26.6739 26.7183 26.8661 26.2545 26.8661 25.7708" fill="#121212"/>
</svg>
