<svg width="35" height="35" viewBox="0 0 35 35" fill="none" xmlns="http://www.w3.org/2000/svg">
<path d="M20.0521 2.91663H14.948C14.1409 2.91665 13.3621 3.21414 12.7605 3.75221C12.159 4.29028 11.7768 5.03119 11.6871 5.83329H9.11462C8.24438 5.83329 7.40978 6.17899 6.79443 6.79435C6.17908 7.4097 5.83337 8.2443 5.83337 9.11454V28.802C5.83337 29.6723 6.17908 30.5069 6.79443 31.1222C7.40978 31.7376 8.24438 32.0833 9.11462 32.0833H25.8855C26.3164 32.0833 26.743 31.9984 27.1411 31.8335C27.5392 31.6686 27.901 31.4269 28.2057 31.1222C28.5103 30.8175 28.752 30.4558 28.9169 30.0577C29.0818 29.6596 29.1667 29.2329 29.1667 28.802V9.11454C29.1667 8.68364 29.0818 8.25696 28.9169 7.85886C28.752 7.46076 28.5103 7.09904 28.2057 6.79435C27.901 6.48966 27.5392 6.24796 27.1411 6.08306C26.743 5.91816 26.3164 5.83329 25.8855 5.83329H23.313C23.2233 5.03119 22.8411 4.29028 22.2396 3.75221C21.638 3.21414 20.8592 2.91665 20.0521 2.91663ZM14.948 5.10413H20.0521C20.3422 5.10413 20.6204 5.21936 20.8255 5.42448C21.0306 5.6296 21.1459 5.9078 21.1459 6.19788C21.1459 6.48796 21.0306 6.76616 20.8255 6.97127C20.6204 7.17639 20.3422 7.29163 20.0521 7.29163H14.948C14.6579 7.29163 14.3797 7.17639 14.1746 6.97127C13.9694 6.76616 13.8542 6.48796 13.8542 6.19788C13.8542 5.9078 13.9694 5.6296 14.1746 5.42448C14.3797 5.21936 14.6579 5.10413 14.948 5.10413ZM18.2292 14.9479C18.2292 14.6578 18.3444 14.3796 18.5496 14.1745C18.7547 13.9694 19.0329 13.8541 19.323 13.8541H24.4271C24.7172 13.8541 24.9954 13.9694 25.2005 14.1745C25.4056 14.3796 25.5209 14.6578 25.5209 14.9479C25.5209 15.238 25.4056 15.5162 25.2005 15.7213C24.9954 15.9264 24.7172 16.0416 24.4271 16.0416H19.323C19.0329 16.0416 18.7547 15.9264 18.5496 15.7213C18.3444 15.5162 18.2292 15.238 18.2292 14.9479ZM19.323 21.875H24.4271C24.7172 21.875 24.9954 21.9902 25.2005 22.1953C25.4056 22.4004 25.5209 22.6786 25.5209 22.9687C25.5209 23.2588 25.4056 23.537 25.2005 23.7421C24.9954 23.9472 24.7172 24.0625 24.4271 24.0625H19.323C19.0329 24.0625 18.7547 23.9472 18.5496 23.7421C18.3444 23.537 18.2292 23.2588 18.2292 22.9687C18.2292 22.6786 18.3444 22.4004 18.5496 22.1953C18.7547 21.9902 19.0329 21.875 19.323 21.875ZM15.7209 14.2625L12.8042 17.1791C12.5991 17.3839 12.3211 17.499 12.0313 17.499C11.7414 17.499 11.4635 17.3839 11.2584 17.1791L9.80004 15.7208C9.69258 15.6207 9.60639 15.4999 9.54661 15.3657C9.48683 15.2316 9.45469 15.0867 9.45209 14.9399C9.4495 14.793 9.47652 14.6472 9.53153 14.511C9.58654 14.3748 9.66842 14.2511 9.77228 14.1472C9.87614 14.0433 9.99985 13.9615 10.136 13.9064C10.2722 13.8514 10.4181 13.8244 10.565 13.827C10.7118 13.8296 10.8567 13.8617 10.9908 13.9215C11.125 13.9813 11.2457 14.0675 11.3459 14.175L12.0313 14.8604L14.175 12.7166C14.2752 12.6092 14.3959 12.523 14.5301 12.4632C14.6643 12.4034 14.8091 12.3713 14.9559 12.3687C15.1028 12.3661 15.2487 12.3931 15.3849 12.4481C15.5211 12.5031 15.6448 12.585 15.7486 12.6889C15.8525 12.7927 15.9344 12.9164 15.9894 13.0526C16.0444 13.1888 16.0714 13.3347 16.0688 13.4816C16.0662 13.6284 16.0341 13.7732 15.9743 13.9074C15.9145 14.0416 15.8283 14.1623 15.7209 14.2625ZM15.7209 20.7375C15.9257 20.9425 16.0407 21.2205 16.0407 21.5104C16.0407 21.8002 15.9257 22.0782 15.7209 22.2833L12.8042 25.2C12.5991 25.4048 12.3211 25.5198 12.0313 25.5198C11.7414 25.5198 11.4635 25.4048 11.2584 25.2L9.80004 23.7416C9.69258 23.6415 9.60639 23.5207 9.54661 23.3866C9.48683 23.2524 9.45469 23.1076 9.45209 22.9607C9.4495 22.8139 9.47652 22.668 9.53153 22.5318C9.58654 22.3956 9.66842 22.2719 9.77228 22.168C9.87614 22.0642 9.99985 21.9823 10.136 21.9273C10.2722 21.8723 10.4181 21.8453 10.565 21.8478C10.7118 21.8504 10.8567 21.8826 10.9908 21.9424C11.125 22.0021 11.2457 22.0883 11.3459 22.1958L12.0313 22.8812L14.175 20.7375C14.3801 20.5326 14.6581 20.4176 14.948 20.4176C15.2378 20.4176 15.5158 20.5326 15.7209 20.7375Z" fill="black"/>
</svg>
