<svg width="35" height="35" viewBox="0 0 35 35" fill="none" xmlns="http://www.w3.org/2000/svg">
<path d="M33.5417 14.1603C33.6138 12.073 33.1573 10.0012 32.2146 8.13742C31.575 7.37266 30.6873 6.85658 29.7063 6.67908C25.6485 6.31089 21.5739 6.15998 17.5 6.227C13.4409 6.15694 9.38104 6.30298 5.3375 6.6645C4.53807 6.80992 3.79826 7.18489 3.20834 7.74367C1.89584 8.95408 1.75 11.0249 1.60417 12.7749C1.39258 15.9214 1.39258 19.0785 1.60417 22.2249C1.64636 23.2099 1.79302 24.1876 2.04167 25.1416C2.21751 25.8781 2.57327 26.5596 3.07709 27.1249C3.67102 27.7133 4.42806 28.1096 5.25 28.2624C8.39405 28.6505 11.562 28.8113 14.7292 28.7437C19.8333 28.8166 24.3104 28.7437 29.6042 28.3353C30.4463 28.1919 31.2247 27.7951 31.8354 27.1978C32.2437 26.7894 32.5487 26.2894 32.725 25.7395C33.2465 24.1391 33.5027 22.4642 33.4833 20.7812C33.5417 19.9645 33.5417 15.0353 33.5417 14.1603ZM14.2042 21.6562V12.6291L22.8375 17.1645C20.4167 18.5062 17.2229 20.0228 14.2042 21.6562Z" fill="black"/>
</svg>
