<svg width="150" height="150" viewBox="0 0 150 150" fill="none" xmlns="http://www.w3.org/2000/svg">
<path d="M75.2998 126C47.0998 126 24.2998 103.2 24.2998 75C24.2998 46.8 47.0998 24 75.2998 24C103.5 24 126.3 46.8 126.3 75C126.3 103.2 103.2 126 75.2998 126ZM75.2998 30C50.3998 30 30.2998 50.1 30.2998 75C30.2998 99.9 50.3998 120 75.2998 120C100.2 120 120.3 99.9 120.3 75C120.3 50.1 99.8998 30 75.2998 30Z" fill="black"/>
<path d="M45.9 111.9L40.5 109.5C42 105.9 46.8 103.8 51.9 101.4C57 99 63.3 96.3 63.3 93V88.5C61.5 87 58.5 83.7 57.9 78.9C56.4 77.4 54 74.7 54 71.1C54 69 54.9 67.2 55.5 66C54.9 63.6 54.3 59.1 54.3 55.5C54.3 43.8 62.4 36 75.3 36C78.9 36 83.4 36.9 85.8 39.6C91.5 40.8 96.3 47.4 96.3 55.5C96.3 60.6 95.4 64.8 94.8 66.9C95.4 67.8 96 69.3 96 71.1C96 75 93.9 77.7 92.1 78.9C91.5 83.7 88.8 86.7 87 88.2V93C87 95.7 92.4 97.8 97.2 99.6C102.9 101.7 108.9 104.1 111 108.9L105.3 111C104.4 108.6 99.6 106.8 95.1 105.3C88.5 102.9 81 100.2 81 93.3V85.5L82.5 84.6C82.5 84.6 86.1 82.2 86.1 77.4V75.3L87.9 74.4C88.2 74.4 89.7 73.5 89.7 71.1C89.7 70.5 89.1 69.6 88.8 69.3L87.6 68.1L88.2 66.6C88.2 66.6 89.7 61.8 89.7 55.8C89.7 50.1 86.4 45.9 83.7 45.9H81.9L81 44.4C81 43.2 78.9 42 75.3 42C66 42 60.3 47.1 60.3 55.5C60.3 59.4 61.8 66 61.8 66L62.1 67.5L60.9 69C60.6 69 60 69.9 60 71.1C60 72.6 61.8 74.4 62.7 75L63.9 75.9V77.4C63.9 81.9 67.8 84.3 67.8 84.6L69.3 85.5V93.3C69.3 100.5 61.5 104.1 54.3 107.1C51 108.3 46.5 110.4 45.9 111.9Z" fill="black"/>
</svg>
