<svg width="200" height="200" viewBox="0 0 200 200" fill="none" xmlns="http://www.w3.org/2000/svg">
<path d="M175 150V158.333C175 162.754 173.244 166.993 170.118 170.118C166.993 173.244 162.754 175 158.333 175H41.6667C37.2464 175 33.0072 173.244 29.8816 170.118C26.7559 166.993 25 162.754 25 158.333V41.6667C25 37.2464 26.7559 33.0072 29.8816 29.8816C33.0072 26.7559 37.2464 25 41.6667 25H158.333C162.754 25 166.993 26.7559 170.118 29.8816C173.244 33.0072 175 37.2464 175 41.6667V50H100C95.5797 50 91.3405 51.7559 88.2149 54.8816C85.0893 58.0072 83.3333 62.2464 83.3333 66.6667V133.333C83.3333 137.754 85.0893 141.993 88.2149 145.118C91.3405 148.244 95.5797 150 100 150M100 133.333H183.333V66.6667H100M133.333 112.5C130.018 112.5 126.839 111.183 124.494 108.839C122.15 106.495 120.833 103.315 120.833 100C120.833 96.6848 122.15 93.5054 124.494 91.1612C126.839 88.817 130.018 87.5 133.333 87.5C136.649 87.5 139.828 88.817 142.172 91.1612C144.516 93.5054 145.833 96.6848 145.833 100C145.833 103.315 144.516 106.495 142.172 108.839C139.828 111.183 136.649 112.5 133.333 112.5Z" fill="black"/>
</svg>
